<?xml version="1.0" encoding="UTF-8"?> <svg xmlns="http://www.w3.org/2000/svg" viewBox="0 0 263.03 55"> <g id="Слой_2" data-name="Слой 2"> <g id="Layer_1" data-name="Layer 1"> <polygon points="35.85 11.95 25.11 15.86 18.67 26.25 12.29 15.98 1.49 12.05 14.19 31.79 0 54.25 8.34 54.25 18.48 37.7 28.75 54.25 37.08 54.25 22.96 32.23 35.85 11.95"></polygon> <path d="M46.79,33.35a10.12,10.12,0,0,1,10.15-8,9.7,9.7,0,0,1,9.77,8ZM56.94,19.28c-10.33,0-17.67,7.6-17.67,17.92S46.67,55,57.06,55c7.28,0,13.81-3.61,16.49-11.26H66.27c-1.62,3.36-5,5.1-9.15,5.1-5.72,0-10.14-3.48-10.7-9.77H74.23C74.92,27.81,68,19.28,56.94,19.28"></path> <polygon points="112.25 20.03 103.23 20.03 88.42 34.84 88.42 20.03 81.39 20.03 81.39 54.25 88.42 54.25 88.42 38.45 104.54 54.25 113.62 54.25 95.52 36.27 112.25 20.03"></polygon> <path d="M132.54,25.82c4.42,0,8.22,2.36,9.52,6.66h7.28c-1.55-8.28-8.71-13.2-16.8-13.2a17.39,17.39,0,0,0-17.79,17.86c0,10.21,7.59,17.86,17.73,17.86,8,0,15.24-4.79,16.86-13.25h-7.28a9.62,9.62,0,0,1-9.58,6.72c-6.16,0-10.64-4.67-10.64-11.33s4.36-11.32,10.7-11.32"></path> <path d="M160,40.32c-1.06,6.34-2.49,8.15-5.79,8.15-.68,0-1.37-.13-2-.19v6.35a22.84,22.84,0,0,0,3.48.37c5.85,0,9.65-3.86,11.33-14.06l2.23-14.31h11.33V54.25h7V20H163.22Z"></path> <path d="M202.43,33.35a10.1,10.1,0,0,1,10.14-8,9.7,9.7,0,0,1,9.77,8Zm10.14-14.07c-10.33,0-17.67,7.6-17.67,17.92S202.3,55,212.69,55c7.28,0,13.82-3.61,16.49-11.26H221.9c-1.62,3.36-5,5.1-9.14,5.1-5.73,0-10.15-3.48-10.71-9.77h27.82c.68-11.26-6.29-19.79-17.3-19.79"></path> <polygon points="251.9 20.03 233.67 20.03 233.67 26.63 244.87 26.63 244.87 54.25 251.9 54.25 251.9 26.63 263.03 26.63 263.03 20.03 251.9 20.03"></polygon> <polygon points="35.91 6.5 18.54 0 1.17 6.5 18.54 12.83 35.91 6.5" style="fill:#136ef6"></polygon> </g> </g> </svg> 